<svg width="64" height="64" viewBox="0 0 64 64" fill="none" xmlns="http://www.w3.org/2000/svg">
<circle cx="25" cy="5" r="3" fill="#1A1D1C"/>
<circle cx="17" cy="5" r="3" fill="#1A1D1C"/>
<circle cx="17" cy="12" r="3" fill="#1A1D1C"/>
<circle cx="17" cy="19" r="3" fill="#1A1D1C"/>
<circle cx="17" cy="26" r="3" fill="#1A1D1C"/>
<circle cx="17" cy="33" r="3" fill="#1A1D1C"/>
<circle cx="54" cy="3" r="3" fill="#1A1D1C"/>
<circle cx="17" cy="40" r="3" fill="#1A1D1C"/>
<circle cx="47" cy="10" r="3" fill="#1A1D1C"/>
<circle cx="17" cy="47" r="3" fill="#1A1D1C"/>
<circle cx="17" cy="54" r="3" fill="#1A1D1C"/>
<circle cx="10" cy="54" r="3" fill="#1A1D1C"/>
<circle cx="10" cy="47" r="3" fill="#1A1D1C"/>
<circle cx="24" cy="54" r="3" fill="#1A1D1C"/>
<circle cx="24" cy="61" r="3" fill="#1A1D1C"/>
<circle cx="24" cy="47" r="3" fill="#1A1D1C"/>
<circle cx="24" cy="40" r="3" fill="#1A1D1C"/>
<circle cx="54" cy="17" r="3" fill="#1A1D1C"/>
<circle cx="3" cy="40" r="3" fill="#1A1D1C"/>
<circle cx="24" cy="33" r="3" fill="#1A1D1C"/>
<circle cx="61" cy="10" r="3" fill="#1A1D1C"/>
<circle cx="3" cy="33" r="3" fill="#1A1D1C"/>
<circle cx="3" cy="26" r="3" fill="#1A1D1C"/>
<circle cx="31" cy="54" r="3" fill="#1A1D1C"/>
<circle cx="31" cy="61" r="3" fill="#1A1D1C"/>
<circle cx="31" cy="47" r="3" fill="#1A1D1C"/>
<circle cx="31" cy="40" r="3" fill="#1A1D1C"/>
<circle cx="10" cy="40" r="3" fill="#1A1D1C"/>
<circle cx="10" cy="33" r="3" fill="#1A1D1C"/>
<circle cx="10" cy="26" r="3" fill="#1A1D1C"/>
<circle cx="10" cy="19" r="3" fill="#1A1D1C"/>
<circle cx="10" cy="12" r="3" fill="#1A1D1C"/>
<circle cx="38" cy="54" r="3" fill="#1A1D1C"/>
<circle cx="38" cy="61" r="3" fill="#1A1D1C"/>
<circle cx="38" cy="47" r="3" fill="#1A1D1C"/>
<circle cx="45" cy="54" r="3" fill="#1A1D1C"/>
<circle cx="45" cy="47" r="3" fill="#1A1D1C"/>
<circle cx="52" cy="54" r="3" fill="#1A1D1C"/>
<circle cx="52" cy="47" r="3" fill="#1A1D1C"/>
<circle cx="59" cy="47" r="3" fill="#1A1D1C"/>
<circle cx="59" cy="40" r="3" fill="#1A1D1C"/>
</svg>
