<svg width="76" height="64" viewBox="0 0 76 64" fill="none" xmlns="http://www.w3.org/2000/svg">
<circle cx="9" cy="61" r="3" fill="#1A1D1C"/>
<circle cx="31" cy="61" r="3" fill="#1A1D1C"/>
<circle cx="53" cy="61" r="3" fill="#1A1D1C"/>
<circle cx="17" cy="54" r="3" fill="#1A1D1C"/>
<circle cx="39" cy="54" r="3" fill="#1A1D1C"/>
<circle cx="61" cy="54" r="3" fill="#1A1D1C"/>
<circle cx="24" cy="10" r="3" fill="#1A1D1C"/>
<circle cx="24" cy="17" r="3" fill="#1A1D1C"/>
<circle cx="38" cy="17" r="3" fill="#1A1D1C"/>
<circle cx="38" cy="10" r="3" fill="#1A1D1C"/>
<circle cx="38" cy="24" r="3" fill="#1A1D1C"/>
<circle cx="38" cy="31" r="3" fill="#1A1D1C"/>
<circle cx="38" cy="38" r="3" fill="#1A1D1C"/>
<circle cx="52" cy="17" r="3" fill="#1A1D1C"/>
<circle cx="52" cy="10" r="3" fill="#1A1D1C"/>
<circle cx="52" cy="3" r="3" fill="#1A1D1C"/>
<circle cx="52" cy="24" r="3" fill="#1A1D1C"/>
<circle cx="52" cy="31" r="3" fill="#1A1D1C"/>
<circle cx="52" cy="38" r="3" fill="#1A1D1C"/>
<circle cx="66" cy="17" r="3" fill="#1A1D1C"/>
<circle cx="73" cy="17" r="3" fill="#1A1D1C"/>
<circle cx="66" cy="10" r="3" fill="#1A1D1C"/>
<circle cx="66" cy="24" r="3" fill="#1A1D1C"/>
<circle cx="73" cy="24" r="3" fill="#1A1D1C"/>
<circle cx="66" cy="31" r="3" fill="#1A1D1C"/>
<circle cx="73" cy="31" r="3" fill="#1A1D1C"/>
<circle cx="66" cy="38" r="3" fill="#1A1D1C"/>
<circle cx="24" cy="24" r="3" fill="#1A1D1C"/>
<circle cx="10" cy="24" r="3" fill="#1A1D1C"/>
<circle cx="10" cy="17" r="3" fill="#1A1D1C"/>
<circle cx="10" cy="31" r="3" fill="#1A1D1C"/>
<circle cx="10" cy="38" r="3" fill="#1A1D1C"/>
<circle cx="24" cy="31" r="3" fill="#1A1D1C"/>
<circle cx="24" cy="38" r="3" fill="#1A1D1C"/>
<circle cx="17" cy="10" r="3" fill="#1A1D1C"/>
<circle cx="17" cy="17" r="3" fill="#1A1D1C"/>
<circle cx="31" cy="17" r="3" fill="#1A1D1C"/>
<circle cx="31" cy="24" r="3" fill="#1A1D1C"/>
<circle cx="31" cy="31" r="3" fill="#1A1D1C"/>
<circle cx="31" cy="38" r="3" fill="#1A1D1C"/>
<circle cx="45" cy="17" r="3" fill="#1A1D1C"/>
<circle cx="45" cy="10" r="3" fill="#1A1D1C"/>
<circle cx="45" cy="3" r="3" fill="#1A1D1C"/>
<circle cx="45" cy="24" r="3" fill="#1A1D1C"/>
<circle cx="45" cy="31" r="3" fill="#1A1D1C"/>
<circle cx="45" cy="38" r="3" fill="#1A1D1C"/>
<circle cx="59" cy="17" r="3" fill="#1A1D1C"/>
<circle cx="59" cy="10" r="3" fill="#1A1D1C"/>
<circle cx="59" cy="3" r="3" fill="#1A1D1C"/>
<circle cx="59" cy="24" r="3" fill="#1A1D1C"/>
<circle cx="59" cy="31" r="3" fill="#1A1D1C"/>
<circle cx="59" cy="38" r="3" fill="#1A1D1C"/>
<circle cx="17" cy="24" r="3" fill="#1A1D1C"/>
<circle cx="3" cy="24" r="3" fill="#1A1D1C"/>
<circle cx="3" cy="31" r="3" fill="#1A1D1C"/>
<circle cx="17" cy="31" r="3" fill="#1A1D1C"/>
<circle cx="17" cy="38" r="3" fill="#1A1D1C"/>
</svg>
