<svg width="64" height="64" viewBox="0 0 64 64" fill="none" xmlns="http://www.w3.org/2000/svg">
<circle cx="32" cy="3" r="3" fill="#1A1D1C"/>
<circle cx="53" cy="11" r="3" fill="#1A1D1C"/>
<circle cx="61" cy="32" r="3" fill="#1A1D1C"/>
<circle cx="53" cy="53" r="3" fill="#1A1D1C"/>
<circle cx="32" cy="61" r="3" fill="#1A1D1C"/>
<circle cx="11" cy="53" r="3" fill="#1A1D1C"/>
<circle cx="3" cy="32" r="3" fill="#1A1D1C"/>
<circle cx="10" cy="11" r="3" fill="#1A1D1C"/>
<circle cx="25" cy="18" r="3" fill="#1A1D1C"/>
<circle cx="25" cy="25" r="3" fill="#1A1D1C"/>
<circle cx="18" cy="25" r="3" fill="#1A1D1C"/>
<circle cx="46" cy="25" r="3" fill="#1A1D1C"/>
<circle cx="18" cy="32" r="3" fill="#1A1D1C"/>
<circle cx="46" cy="32" r="3" fill="#1A1D1C"/>
<circle cx="18" cy="39" r="3" fill="#1A1D1C"/>
<circle cx="46" cy="39" r="3" fill="#1A1D1C"/>
<circle cx="25" cy="32" r="3" fill="#1A1D1C"/>
<circle cx="25" cy="39" r="3" fill="#1A1D1C"/>
<circle cx="25" cy="46" r="3" fill="#1A1D1C"/>
<circle cx="32" cy="18" r="3" fill="#1A1D1C"/>
<circle cx="32" cy="25" r="3" fill="#1A1D1C"/>
<circle cx="32" cy="32" r="3" fill="#1A1D1C"/>
<circle cx="32" cy="39" r="3" fill="#1A1D1C"/>
<circle cx="32" cy="46" r="3" fill="#1A1D1C"/>
<circle cx="39" cy="18" r="3" fill="#1A1D1C"/>
<circle cx="39" cy="25" r="3" fill="#1A1D1C"/>
<circle cx="39" cy="32" r="3" fill="#1A1D1C"/>
<circle cx="39" cy="39" r="3" fill="#1A1D1C"/>
<circle cx="39" cy="46" r="3" fill="#1A1D1C"/>
</svg>
