<svg width="119" height="117" viewBox="0 0 119 117" fill="none" xmlns="http://www.w3.org/2000/svg">
<line x1="60.95" y1="1.02996" x2="60.95" y2="5.52996" stroke="#E7EAE9" stroke-width="1.5" stroke-linecap="square"/>
<line x1="115.822" y1="46.8949" x2="111.644" y2="48.5661" stroke="#E7EAE9" stroke-width="1.5" stroke-linecap="square"/>
<line x1="117.97" y1="58.31" x2="113.47" y2="58.31" stroke="#E7EAE9" stroke-width="1.5" stroke-linecap="square"/>
<line x1="114.597" y1="73.0283" x2="110.185" y2="72.1458" stroke="#E7EAE9" stroke-width="1.5" stroke-linecap="square"/>
<line x1="109.23" y1="86.47" x2="105.63" y2="83.77" stroke="#E7EAE9" stroke-width="1.5" stroke-linecap="square"/>
<line x1="8.47747" y1="46.7483" x2="4.06486" y2="45.8658" stroke="#E7EAE9" stroke-width="1.5" stroke-linecap="square"/>
<line x1="6.13" y1="59.31" x2="1.63" y2="59.31" stroke="#E7EAE9" stroke-width="1.5" stroke-linecap="square"/>
<line x1="8.94218" y1="73.1749" x2="4.76404" y2="74.8461" stroke="#E7EAE9" stroke-width="1.5" stroke-linecap="square"/>
<line x1="15.3027" y1="86.869" x2="11.444" y2="89.1842" stroke="#E7EAE9" stroke-width="1.5" stroke-linecap="square"/>
<line x1="24.24" y1="96.8206" x2="21.058" y2="100.003" stroke="#E7EAE9" stroke-width="1.5" stroke-linecap="square"/>
<line x1="98.69" y1="94.91" x2="101.39" y2="98.51" stroke="#E7EAE9" stroke-width="1.5" stroke-linecap="square"/>
<line x1="34.4172" y1="104.469" x2="32.102" y2="108.328" stroke="#E7EAE9" stroke-width="1.5" stroke-linecap="square"/>
<line x1="87.269" y1="103.697" x2="89.5842" y2="107.556" stroke="#E7EAE9" stroke-width="1.5" stroke-linecap="square"/>
<line x1="60.95" y1="111.63" x2="60.95" y2="116.13" stroke="#E7EAE9" stroke-width="1.5" stroke-linecap="square"/>
<line x1="76.2437" y1="3.70563" x2="74.8477" y2="7.98361" stroke="#E7EAE9" stroke-width="1.5" stroke-linecap="square"/>
<line x1="90.1156" y1="10.6417" x2="87.6858" y2="14.4293" stroke="#E7EAE9" stroke-width="1.5" stroke-linecap="square"/>
<line x1="100.749" y1="19.7006" x2="97.6006" y2="22.9153" stroke="#E7EAE9" stroke-width="1.5" stroke-linecap="square"/>
<line x1="110.451" y1="30.84" x2="106.707" y2="33.3367" stroke="#E7EAE9" stroke-width="1.5" stroke-linecap="square"/>
<line x1="74.7225" y1="108.988" x2="75.605" y2="113.401" stroke="#E7EAE9" stroke-width="1.5" stroke-linecap="square"/>
<line x1="46.2025" y1="3.34831" x2="47.085" y2="7.76093" stroke="#E7EAE9" stroke-width="1.5" stroke-linecap="square"/>
<line x1="32.6862" y1="9.29537" x2="34.6987" y2="13.3203" stroke="#E7EAE9" stroke-width="1.5" stroke-linecap="square"/>
<line x1="20.3407" y1="17.64" x2="23.5226" y2="20.8219" stroke="#E7EAE9" stroke-width="1.5" stroke-linecap="square"/>
<line x1="10.41" y1="28.65" x2="14.01" y2="31.35" stroke="#E7EAE9" stroke-width="1.5" stroke-linecap="square"/>
<line x1="47.1765" y1="110.263" x2="46.4367" y2="114.702" stroke="#E7EAE9" stroke-width="1.5" stroke-linecap="square"/>
</svg>
