<svg width="137" height="186" viewBox="0 0 137 186" fill="none" xmlns="http://www.w3.org/2000/svg">
<rect width="136.4" height="186" rx="13" fill="#E7EAE9"/>
<path d="M18.46 22.4844C18.46 22.252 18.4235 22.0469 18.3506 21.8691C18.2822 21.6868 18.1592 21.5228 17.9814 21.377C17.8083 21.2311 17.5667 21.0921 17.2568 20.96C16.9515 20.8278 16.5641 20.6934 16.0947 20.5566C15.6025 20.4108 15.1582 20.249 14.7617 20.0713C14.3652 19.889 14.0257 19.6816 13.7432 19.4492C13.4606 19.2168 13.2441 18.9502 13.0938 18.6494C12.9434 18.3486 12.8682 18.0046 12.8682 17.6172C12.8682 17.2298 12.9479 16.8721 13.1074 16.5439C13.2669 16.2158 13.4948 15.931 13.791 15.6895C14.0918 15.4434 14.4495 15.252 14.8643 15.1152C15.279 14.9785 15.7415 14.9102 16.252 14.9102C16.9993 14.9102 17.6328 15.0537 18.1523 15.3408C18.6764 15.6234 19.0752 15.9948 19.3486 16.4551C19.6221 16.9108 19.7588 17.3984 19.7588 17.918H18.4463C18.4463 17.5443 18.3665 17.2139 18.207 16.9268C18.0475 16.6351 17.806 16.4072 17.4824 16.2432C17.1589 16.0745 16.7487 15.9902 16.252 15.9902C15.7826 15.9902 15.3952 16.0609 15.0898 16.2021C14.7845 16.3434 14.5566 16.5348 14.4062 16.7764C14.2604 17.0179 14.1875 17.2936 14.1875 17.6035C14.1875 17.8132 14.2308 18.0046 14.3174 18.1777C14.4085 18.3464 14.5475 18.5036 14.7344 18.6494C14.9258 18.7952 15.1673 18.9297 15.459 19.0527C15.7552 19.1758 16.1084 19.2943 16.5186 19.4082C17.0837 19.5677 17.5713 19.7454 17.9814 19.9414C18.3916 20.1374 18.7288 20.3584 18.9932 20.6045C19.262 20.846 19.4603 21.1217 19.5879 21.4316C19.7201 21.737 19.7861 22.0833 19.7861 22.4707C19.7861 22.8763 19.7041 23.2432 19.54 23.5713C19.376 23.8994 19.1413 24.1797 18.8359 24.4121C18.5306 24.6445 18.1637 24.8245 17.7354 24.9521C17.3115 25.0752 16.8376 25.1367 16.3135 25.1367C15.8532 25.1367 15.3997 25.0729 14.9531 24.9453C14.5111 24.8177 14.1077 24.6263 13.7432 24.3711C13.3831 24.1159 13.0938 23.8014 12.875 23.4277C12.6608 23.0495 12.5537 22.612 12.5537 22.1152H13.8662C13.8662 22.457 13.9323 22.751 14.0645 22.9971C14.1966 23.2386 14.3766 23.4391 14.6045 23.5986C14.8369 23.7581 15.099 23.8766 15.3906 23.9541C15.6868 24.027 15.9945 24.0635 16.3135 24.0635C16.7738 24.0635 17.1634 23.9997 17.4824 23.8721C17.8014 23.7445 18.043 23.5622 18.207 23.3252C18.3757 23.0882 18.46 22.8079 18.46 22.4844ZM27.1621 15.0469H28.4746V21.7803C28.4746 22.5277 28.3083 23.1497 27.9756 23.6465C27.6429 24.1432 27.2008 24.5169 26.6494 24.7676C26.1025 25.0137 25.5078 25.1367 24.8652 25.1367C24.1908 25.1367 23.5801 25.0137 23.0332 24.7676C22.4909 24.5169 22.0602 24.1432 21.7412 23.6465C21.4268 23.1497 21.2695 22.5277 21.2695 21.7803V15.0469H22.5752V21.7803C22.5752 22.2998 22.6709 22.7282 22.8623 23.0654C23.0537 23.4027 23.3203 23.6533 23.6621 23.8174C24.0085 23.9814 24.4095 24.0635 24.8652 24.0635C25.3255 24.0635 25.7266 23.9814 26.0684 23.8174C26.4147 23.6533 26.6836 23.4027 26.875 23.0654C27.0664 22.7282 27.1621 22.2998 27.1621 21.7803V15.0469ZM38.2021 15.0469V25H36.876L31.8652 17.3232V25H30.5459V15.0469H31.8652L36.8965 22.7441V15.0469H38.2021ZM49.9326 19.2305V20.748C49.9326 21.5638 49.8597 22.252 49.7139 22.8125C49.568 23.373 49.3584 23.8242 49.085 24.166C48.8115 24.5078 48.4811 24.7562 48.0938 24.9111C47.7109 25.0615 47.278 25.1367 46.7949 25.1367C46.4121 25.1367 46.0589 25.0889 45.7354 24.9932C45.4118 24.8975 45.1201 24.7448 44.8604 24.5352C44.6051 24.321 44.3864 24.043 44.2041 23.7012C44.0218 23.3594 43.8828 22.9447 43.7871 22.457C43.6914 21.9694 43.6436 21.3997 43.6436 20.748V19.2305C43.6436 18.4147 43.7165 17.7311 43.8623 17.1797C44.0127 16.6283 44.2246 16.1862 44.498 15.8535C44.7715 15.5163 45.0996 15.2747 45.4824 15.1289C45.8698 14.9831 46.3027 14.9102 46.7812 14.9102C47.1686 14.9102 47.5241 14.958 47.8477 15.0537C48.1758 15.1449 48.4674 15.293 48.7227 15.498C48.9779 15.6986 49.1943 15.9674 49.3721 16.3047C49.5544 16.6374 49.6934 17.0452 49.7891 17.5283C49.8848 18.0114 49.9326 18.5788 49.9326 19.2305ZM48.6611 20.9531V19.0186C48.6611 18.5719 48.6338 18.18 48.5791 17.8428C48.529 17.501 48.4538 17.2093 48.3535 16.9678C48.2533 16.7262 48.1257 16.5303 47.9707 16.3799C47.8203 16.2295 47.6449 16.1201 47.4443 16.0518C47.2484 15.9788 47.0273 15.9424 46.7812 15.9424C46.4805 15.9424 46.2139 15.9993 45.9814 16.1133C45.749 16.2227 45.5531 16.3981 45.3936 16.6396C45.2386 16.8812 45.1201 17.1979 45.0381 17.5898C44.9561 17.9818 44.915 18.458 44.915 19.0186V20.9531C44.915 21.3997 44.9401 21.7939 44.9902 22.1357C45.0449 22.4775 45.1247 22.7738 45.2295 23.0244C45.3343 23.2705 45.4619 23.4733 45.6123 23.6328C45.7627 23.7923 45.9359 23.9108 46.1318 23.9883C46.3324 24.0612 46.5534 24.0977 46.7949 24.0977C47.1048 24.0977 47.376 24.0384 47.6084 23.9199C47.8408 23.8014 48.0345 23.6169 48.1895 23.3662C48.349 23.111 48.4674 22.7852 48.5449 22.3887C48.6224 21.9876 48.6611 21.5091 48.6611 20.9531ZM53.4053 19.4014H54.3076C54.7497 19.4014 55.1143 19.3285 55.4014 19.1826C55.693 19.0322 55.9095 18.8294 56.0508 18.5742C56.1966 18.3145 56.2695 18.0228 56.2695 17.6992C56.2695 17.3164 56.2057 16.9951 56.0781 16.7354C55.9505 16.4756 55.7591 16.2796 55.5039 16.1475C55.2487 16.0153 54.9251 15.9492 54.5332 15.9492C54.1777 15.9492 53.8633 16.0199 53.5898 16.1611C53.321 16.2979 53.109 16.4938 52.9541 16.749C52.8037 17.0042 52.7285 17.305 52.7285 17.6514H51.4639C51.4639 17.1455 51.5915 16.6852 51.8467 16.2705C52.1019 15.8558 52.4596 15.5254 52.9199 15.2793C53.3848 15.0332 53.9225 14.9102 54.5332 14.9102C55.1348 14.9102 55.6611 15.0173 56.1123 15.2314C56.5635 15.4411 56.9144 15.7555 57.165 16.1748C57.4157 16.5895 57.541 17.1068 57.541 17.7266C57.541 17.9772 57.4818 18.2461 57.3633 18.5332C57.2493 18.8158 57.0693 19.0801 56.8232 19.3262C56.5817 19.5723 56.2673 19.7751 55.8799 19.9346C55.4925 20.0895 55.0277 20.167 54.4854 20.167H53.4053V19.4014ZM53.4053 20.4404V19.6816H54.4854C55.1188 19.6816 55.6429 19.7568 56.0576 19.9072C56.4723 20.0576 56.7982 20.2581 57.0352 20.5088C57.2767 20.7594 57.4453 21.0352 57.541 21.3359C57.6413 21.6322 57.6914 21.9284 57.6914 22.2246C57.6914 22.6895 57.6117 23.1019 57.4521 23.4619C57.2972 23.8219 57.0762 24.1273 56.7891 24.3779C56.5065 24.6286 56.1738 24.8177 55.791 24.9453C55.4082 25.0729 54.9912 25.1367 54.54 25.1367C54.1071 25.1367 53.6992 25.0752 53.3164 24.9521C52.9382 24.8291 52.6032 24.6514 52.3115 24.4189C52.0199 24.182 51.792 23.8926 51.6279 23.5508C51.4639 23.2044 51.3818 22.8102 51.3818 22.3682H52.6465C52.6465 22.7145 52.7217 23.0176 52.8721 23.2773C53.027 23.5371 53.2458 23.7399 53.5283 23.8857C53.8154 24.027 54.1527 24.0977 54.54 24.0977C54.9274 24.0977 55.2601 24.0316 55.5381 23.8994C55.8206 23.7627 56.0371 23.5576 56.1875 23.2842C56.3424 23.0107 56.4199 22.6667 56.4199 22.252C56.4199 21.8372 56.3333 21.4977 56.1602 21.2334C55.987 20.9645 55.7409 20.7663 55.4219 20.6387C55.1074 20.5065 54.736 20.4404 54.3076 20.4404H53.4053Z" fill="#1A1D1C"/>
<rect x="93" y="9" width="34" height="22" rx="3.72" fill="#1A1D1C"/>
<path d="M104.162 21.3701H101.599V19.8936H104.162C104.581 19.8936 104.921 19.8252 105.181 19.6885C105.445 19.5472 105.639 19.3558 105.762 19.1143C105.885 18.8682 105.946 18.5879 105.946 18.2734C105.946 17.9681 105.885 17.6833 105.762 17.4189C105.639 17.1546 105.445 16.9404 105.181 16.7764C104.921 16.6123 104.581 16.5303 104.162 16.5303H102.214V25H100.334V15.0469H104.162C104.937 15.0469 105.598 15.1859 106.145 15.4639C106.696 15.7373 107.115 16.1178 107.402 16.6055C107.694 17.0885 107.84 17.64 107.84 18.2598C107.84 18.9023 107.694 19.4561 107.402 19.9209C107.115 20.3857 106.696 20.7435 106.145 20.9941C105.598 21.2448 104.937 21.3701 104.162 21.3701ZM110.137 15.0469H111.764L114.484 22.5391L117.198 15.0469H118.832L115.134 25H113.828L110.137 15.0469ZM109.316 15.0469H110.909L111.196 21.9307V25H109.316V15.0469ZM118.053 15.0469H119.652V25H117.772V21.9307L118.053 15.0469Z" fill="#E7EAE9"/>
<circle cx="68" cy="118" r="60" fill="#1A1D1C"/>
<line x1="68.95" y1="60.03" x2="68.95" y2="64.53" stroke="#E7EAE9" stroke-width="1.5" stroke-linecap="square"/>
<line x1="123.822" y1="105.895" x2="119.644" y2="107.566" stroke="#E7EAE9" stroke-width="1.5" stroke-linecap="square"/>
<line x1="125.97" y1="117.31" x2="121.47" y2="117.31" stroke="#E7EAE9" stroke-width="1.5" stroke-linecap="square"/>
<line x1="122.597" y1="132.028" x2="118.185" y2="131.146" stroke="#E7EAE9" stroke-width="1.5" stroke-linecap="square"/>
<line x1="117.23" y1="145.47" x2="113.63" y2="142.77" stroke="#E7EAE9" stroke-width="1.5" stroke-linecap="square"/>
<line x1="16.4775" y1="105.748" x2="12.0649" y2="104.866" stroke="#E7EAE9" stroke-width="1.5" stroke-linecap="square"/>
<line x1="14.13" y1="118.31" x2="9.63" y2="118.31" stroke="#E7EAE9" stroke-width="1.5" stroke-linecap="square"/>
<line x1="16.9422" y1="132.175" x2="12.764" y2="133.846" stroke="#E7EAE9" stroke-width="1.5" stroke-linecap="square"/>
<line x1="23.3027" y1="145.869" x2="19.444" y2="148.184" stroke="#E7EAE9" stroke-width="1.5" stroke-linecap="square"/>
<line x1="32.24" y1="155.821" x2="29.058" y2="159.003" stroke="#E7EAE9" stroke-width="1.5" stroke-linecap="square"/>
<line x1="106.69" y1="153.91" x2="109.39" y2="157.51" stroke="#E7EAE9" stroke-width="1.5" stroke-linecap="square"/>
<line x1="42.4172" y1="163.469" x2="40.102" y2="167.328" stroke="#E7EAE9" stroke-width="1.5" stroke-linecap="square"/>
<line x1="95.269" y1="162.697" x2="97.5842" y2="166.556" stroke="#E7EAE9" stroke-width="1.5" stroke-linecap="square"/>
<line x1="68.95" y1="170.63" x2="68.95" y2="175.13" stroke="#E7EAE9" stroke-width="1.5" stroke-linecap="square"/>
<line x1="84.2437" y1="62.7056" x2="82.8477" y2="66.9836" stroke="#E7EAE9" stroke-width="1.5" stroke-linecap="square"/>
<line x1="98.1156" y1="69.6417" x2="95.6858" y2="73.4293" stroke="#E7EAE9" stroke-width="1.5" stroke-linecap="square"/>
<line x1="108.749" y1="78.7006" x2="105.601" y2="81.9153" stroke="#E7EAE9" stroke-width="1.5" stroke-linecap="square"/>
<line x1="118.451" y1="89.84" x2="114.707" y2="92.3367" stroke="#E7EAE9" stroke-width="1.5" stroke-linecap="square"/>
<line x1="82.7225" y1="167.988" x2="83.605" y2="172.401" stroke="#E7EAE9" stroke-width="1.5" stroke-linecap="square"/>
<line x1="54.2025" y1="62.3483" x2="55.085" y2="66.7609" stroke="#E7EAE9" stroke-width="1.5" stroke-linecap="square"/>
<line x1="40.6862" y1="68.2954" x2="42.6987" y2="72.3203" stroke="#E7EAE9" stroke-width="1.5" stroke-linecap="square"/>
<line x1="28.3407" y1="76.64" x2="31.5226" y2="79.8219" stroke="#E7EAE9" stroke-width="1.5" stroke-linecap="square"/>
<line x1="18.41" y1="87.65" x2="22.01" y2="90.35" stroke="#E7EAE9" stroke-width="1.5" stroke-linecap="square"/>
<line x1="55.1765" y1="169.263" x2="54.4367" y2="173.702" stroke="#E7EAE9" stroke-width="1.5" stroke-linecap="square"/>
<rect x="61.1323" y="125.751" width="3.15081" height="53.3807" transform="rotate(-131.616 61.1323 125.751)" fill="#D71921"/>
<path d="M45.88 101.82L47.84 99.5487L75.3624 123.3L73.4024 125.571L45.88 101.82Z" fill="#D71921"/>
</svg>
